<?xml version="1.0" encoding="utf-8"?>
<!-- Generator: Adobe Illustrator 26.5.0, SVG Export Plug-In . SVG Version: 6.00 Build 0)  -->
<svg version="1.1" id="Layer_1" xmlns="http://www.w3.org/2000/svg" xmlns:xlink="http://www.w3.org/1999/xlink" x="0px" y="0px"
	 viewBox="0 0 485 485" style="enable-background:new 0 0 485 485;" xml:space="preserve">
<style type="text/css">
	.st0{fill:#AFB6BB;}
	.st1{fill:#E7ECED;}
	.st2{fill:#FF6600;}
	.st3{fill:#231F20;}
	.st4{fill-rule:evenodd;clip-rule:evenodd;}
</style>
<g>
	<g>
		<path class="st0" d="M152.5,447.5h20h140h20c5.5,0,10,4.5,10,10v10v10h-200v-10v-10C142.5,452,147,447.5,152.5,447.5z"/>
		<rect x="172.5" y="377.5" class="st1" width="140" height="70"/>
		<path class="st2" d="M477.5,17.5v270H7.5v-270c0-5.5,4.5-10,10-10h450C473,7.5,477.5,12,477.5,17.5z"/>
		<path class="st0" d="M477.5,287.5v80c0,5.5-4.5,10-10,10h-155h-140h-155c-5.5,0-10-4.5-10-10v-80H477.5z"/>
	</g>
	<g id="XMLID_42_">
		<g>
			<path class="st1" d="M242.5,312.5c11,0,20,9,20,20s-9,20-20,20s-20-9-20-20S231.5,312.5,242.5,312.5z"/>
		</g>
		<g>
			<path class="st3" d="M467.5,0h-450C7.9,0,0,7.9,0,17.5v350c0,9.6,7.9,17.5,17.5,17.5H165v55h-12.5c-9.6,0-17.5,7.9-17.5,17.5V485
				h215v-27.5c0-9.6-7.9-17.5-17.5-17.5H320v-55h147.5c9.6,0,17.5-7.9,17.5-17.5v-350C485,7.9,477.1,0,467.5,0z M17.5,15h450
				c1.4,0,2.5,1.1,2.5,2.5V280H15V17.5C15,16.1,16.1,15,17.5,15z M335,457.5V470H150v-12.5c0-1.4,1.1-2.5,2.5-2.5h180
				C333.9,455,335,456.1,335,457.5z M180,440v-55h125v55H180z M467.5,370h-450c-1.4,0-2.5-1.1-2.5-2.5V295h455v72.5
				C470,368.9,468.9,370,467.5,370z"/>
			<path class="st3" d="M242.5,305c-15.2,0-27.5,12.3-27.5,27.5s12.3,27.5,27.5,27.5c15.2,0,27.5-12.3,27.5-27.5
				S257.7,305,242.5,305z M242.5,345c-6.9,0-12.5-5.6-12.5-12.5s5.6-12.5,12.5-12.5s12.5,5.6,12.5,12.5S249.4,345,242.5,345z"/>
		</g>
	</g>
</g>
<path class="st4" d="M205.8,60.9c-0.6-0.1-1.2-0.1-1.8-0.2c-2.5-9.9-11.4-16.8-21.6-16.7v19.6c-23.2,9.2-40.1,29.5-45,53.9v5.9
	c6.9,12.6,28.6,17,32.4,17.7c0.4,0.1,0.6,0.1,0.5,0.1c-36.4,4.8-32.9,33.8-32.9,33.8c0.6,7.9,7.1,14,15,14c4.1-0.3,8.1-1.2,11.9-2.7
	h31c-2.7,4.6-4.5,9.7-5.4,15H185c-18.8,2.8-32.7,19-32.6,38c-0.5,3.4,1.9,6.7,5.3,7.2c0.2,0,0.4,0,0.5,0.1h100.4
	c31.2,1.6,57.7-22.4,59.3-53.6c0.2-3,0.1-6-0.3-8.9c-0.4-11.4-4.3-22.4-11.3-31.4l-1.7-2.1c-6.5-8.3-10.2-13.7-8.3-19.4
	c2-5.7,5.5-6,5.5-6s2.8-0.5,6.8,1.4c3.3,1.9,6.9,3.3,10.7,4.1c10.8,2,21.6-3.6,26.1-13.6c1.4-3.1,2.1-6.5,2.1-10
	c0.1-10.8-5-21.9-10.9-31.4s-13.9-17.6-23.4-23.6c-12.1-6.5-26.1-8.6-39.7-6c-9.6,1.7-18.4,6.4-25.1,13.4
	c-5.4,5.9-9.4,12.8-11.7,20.4c-2.8-4.1-6-7.9-9.6-11.2v-2.4c0.1-12.1-9.6-22-21.6-22.2v16.8H205.8z M285.5,192.2
	c1.7,11.1,3.3,27.4-13,36.7c-4.4,1.5-9.1,2.4-13.9,2.5h-88c0-7.9,6-14.4,13.8-15h19.2v-7.5c-0.3-14.3,10.6-26.3,24.8-27.4l-9.4-13.3
	c-3.5,1-7,2.3-8.7,3.5h-48.2c-1.4,0.1-2.7,0.5-4,1.1c-2.1,0.8-4.1,1.6-6,0.5c-3-2,1.7-16.8,15.2-16.8h15c7.4,0,8.6-8.1,8.6-8.1
	l4.2-17c-15.7,2.3-31.5-2.9-42.8-14c4.9-22.4,24.3-38.8,47.2-39.9h1.2c3.9,0.1,6.5,0.2,11.7,2.5c14,6.3,32.3,37.1,32.3,37.1l0.9,1.4
	h2.6v-1.1c-0.9-6.7-0.3-22,1.7-28.4c2.1-6.4,5.5-12.2,10.1-17.1c5.3-5.3,12.1-8.8,19.5-9.9c9.5-2,19.5-0.5,28,4.4
	c6.9,4.3,12.8,10.1,17.1,16.9s7.2,12.6,8,20.7c0,0.3,0,0.7,0,1.2c0.1,2.1,0.3,5.9-1.9,8.2c-1.9,2-6.7,3.5-10.1,2.7
	c-2.4-0.5-4.7-1.5-6.8-2.7c-5.1-3.2-11.4-3.9-17.1-2c-7,2.3-12.3,7.9-14.1,15c-3.1,12.1,0.6,25,9.6,33.6l1.7,2.1
	c5.2,6.5,8.2,14.5,8.6,22.8c0.3,7.4-1.3,14.8-4.6,21.4c-0.6-7-3-13.8-7-19.6L285.5,192.2L285.5,192.2z M186,96.3
	c-4.2,0-7.5,3.4-7.5,7.5c0,4.2,3.4,7.5,7.5,7.5s7.5-3.4,7.5-7.5C193.5,99.7,190.1,96.3,186,96.3z"/>
</svg>
